<svg xmlns="http://www.w3.org/2000/svg">
  <symbol id="discord" viewBox="0 0 24 24">
    <path d="M20.317 4.3698a19.7913 19.7913 0 00-4.8851-1.5152.0741.0741 0 00-.0785.0371c-.211.3753-.4447.8648-.6083 1.2495-1.8447-.2762-3.68-.2762-5.4868 0-.1636-.3933-.4058-.8742-.6177-1.2495a.077.077 0 00-.0785-.037 19.7363 19.7363 0 00-4.8852 1.515.0699.0699 0 00-.0321.0277C.5334 9.0458-.319 13.5799.0992 18.0578a.0824.0824 0 00.0312.0561c2.0528 1.5076 4.0413 2.4228 5.9929 3.0294a.0777.0777 0 00.0842-.0276c.4616-.6304.8731-1.2952 1.226-1.9942a.076.076 0 00-.0416-.1057c-.6528-.2476-1.2743-.5495-1.8722-.8923a.077.077 0 01-.0076-.1277c.1258-.0943.2517-.1923.3718-.2914a.0743.0743 0 01.0776-.0105c3.9278 1.7933 8.18 1.7933 12.0614 0a.0739.0739 0 01.0785.0095c.1202.099.246.1981.3728.2924a.077.077 0 01-.0066.1276 12.2986 12.2986 0 01-1.873.8914.0766.0766 0 00-.0407.1067c.3604.698.7719 1.3628 1.225 1.9932a.076.076 0 00.0842.0286c1.961-.6067 3.9495-1.5219 6.0023-3.0294a.077.077 0 00.0313-.0552c.5004-5.177-.8382-9.6739-3.5485-13.6604a.061.061 0 00-.0312-.0286zM8.02 15.3312c-1.1825 0-2.1569-1.0857-2.1569-2.419 0-1.3332.9555-2.4189 2.157-2.4189 1.2108 0 2.1757 1.0952 2.1568 2.419 0 1.3332-.9555 2.4189-2.1569 2.4189zm7.9748 0c-1.1825 0-2.1569-1.0857-2.1569-2.419 0-1.3332.9554-2.4189 2.1569-2.4189 1.2108 0 2.1757 1.0952 2.1568 2.419 0 1.3332-.946 2.4189-2.1568 2.4189Z"/>
  </symbol>
  <symbol id="twitter" viewBox="0 0 24 24">
    <path d="M21.543 7.104c.015.211.015.423.015.636 0 6.507-4.954 14.01-14.01 14.01v-.003A13.94 13.94 0 0 1 0 19.539a9.88 9.88 0 0 0 7.287-2.041 4.93 4.93 0 0 1-4.6-3.42 4.916 4.916 0 0 0 2.223-.084A4.926 4.926 0 0 1 .96 9.167v-.062a4.887 4.887 0 0 0 2.235.616A4.928 4.928 0 0 1 1.67 3.148 13.98 13.98 0 0 0 11.82 8.292a4.929 4.929 0 0 1 8.39-4.49 9.868 9.868 0 0 0 3.128-1.196 4.941 4.941 0 0 1-2.165 2.724A9.828 9.828 0 0 0 24 4.555a10.019 10.019 0 0 1-2.457 2.549z"/>
  </symbol>
  <symbol id="bluesky" viewBox="0 0 24 24">
    <path d="M12 10.8c-1.087-2.114-4.046-6.053-6.798-7.995C2.566.944 1.561 1.266.902 1.565.139 1.908 0 3.08 0 3.768c0 .69.378 5.65.624 6.479.815 2.736 3.713 3.66 6.383 3.364.136-.02.275-.039.415-.056-.138.022-.276.04-.415.056-3.912.58-7.387 2.005-2.83 7.078 5.013 5.19 6.87-1.113 7.823-4.308.953 3.195 2.05 9.271 7.733 4.308 4.267-4.308 1.172-6.498-2.74-7.078a8.741 8.741 0 0 1-.415-.056c.14.017.279.036.415.056 2.67.297 5.568-.628 6.383-3.364.246-.828.624-5.79.624-6.478 0-.69-.139-1.861-.902-2.206-.659-.298-1.664-.62-4.3 1.24C16.046 4.748 13.087 8.687 12 10.8Z"/>
  </symbol>
  <symbol id="telegram" viewBox="0 0 24 24">
    <path d="M11.944 0A12 12 0 0 0 0 12a12 12 0 0 0 12 12 12 12 0 0 0 12-12A12 12 0 0 0 12 0a12 12 0 0 0-.056 0zm4.962 7.224c.1-.002.321.023.465.14a.506.506 0 0 1 .171.325c.016.093.036.306.02.472-.18 1.898-.962 6.502-1.36 8.627-.168.9-.499 1.201-.82 1.23-.696.065-1.225-.46-1.9-.902-1.056-.693-1.653-1.124-2.678-1.8-1.185-.78-.417-1.21.258-1.91.177-.184 3.247-2.977 3.307-3.23.007-.032.014-.15-.056-.212s-.174-.041-.249-.024c-.106.024-1.793 1.14-5.061 3.345-.48.33-.913.49-1.302.48-.428-.008-1.252-.241-1.865-.44-.752-.245-1.349-.374-1.297-.789.027-.216.325-.437.893-.663 3.498-1.524 5.83-2.529 6.998-3.014 3.332-1.386 4.025-1.627 4.476-1.635z"/>
  </symbol>
  <symbol id="email" viewBox="0 0 24 24">
    <path d="M15.61 12c0 1.99-1.62 3.61-3.61 3.61-1.99 0-3.61-1.62-3.61-3.61 0-1.99 1.62-3.61 3.61-3.61 1.99 0 3.61 1.62 3.61 3.61M12 0C5.383 0 0 5.383 0 12s5.383 12 12 12c2.424 0 4.761-.722 6.76-2.087l.034-.024-1.617-1.879-.027.017A9.494 9.494 0 0 1 12 21.54c-5.26 0-9.54-4.28-9.54-9.54 0-5.26 4.28-9.54 9.54-9.54 5.26 0 9.54 4.28 9.54 9.54a9.63 9.63 0 0 1-.225 2.05c-.301 1.239-1.169 1.618-1.82 1.568-.654-.053-1.42-.52-1.426-1.661V12A6.076 6.076 0 0 0 12 5.93 6.076 6.076 0 0 0 5.93 12 6.076 6.076 0 0 0 12 18.07a6.02 6.02 0 0 0 4.3-1.792 3.9 3.9 0 0 0 3.32 1.805c.874 0 1.74-.292 2.437-.821.719-.547 1.256-1.336 1.553-2.285.047-.154.135-.504.135-.507l.002-.013c.175-.76.253-1.52.253-2.457 0-6.617-5.383-12-12-12"/>
  </symbol>
  <symbol id="lastfm" viewBox="0 0 24 24">
    <path d="M10.584 17.21l-.88-2.392s-1.43 1.594-3.573 1.594c-1.897 0-3.244-1.649-3.244-4.288 0-3.382 1.704-4.591 3.381-4.591 2.42 0 3.189 1.567 3.849 3.574l.88 2.749c.88 2.666 2.529 4.81 7.285 4.81 3.409 0 5.718-1.044 5.718-3.793 0-2.227-1.265-3.381-3.63-3.931l-1.758-.385c-1.21-.275-1.567-.77-1.567-1.595 0-.934.742-1.484 1.952-1.484 1.32 0 2.034.495 2.144 1.677l2.749-.33c-.22-2.474-1.924-3.492-4.729-3.492-2.474 0-4.893.935-4.893 3.932 0 1.87.907 3.051 3.189 3.601l1.87.44c1.402.33 1.869.907 1.869 1.704 0 1.017-.99 1.43-2.86 1.43-2.776 0-3.93-1.457-4.59-3.464l-.907-2.75c-1.155-3.573-2.997-4.893-6.653-4.893C2.144 5.333 0 7.89 0 12.233c0 4.18 2.144 6.434 5.993 6.434 3.106 0 4.591-1.457 4.591-1.457z"/>
  </symbol>
  <symbol id="fox" viewBox="0 0 36 36">
    <path fill="#F4900C" d="M13.431 9.802c.658 2.638-8.673 10.489-11.244 4.098C.696 10.197-.606 2.434.874 2.065c1.48-.368 11.9 5.098 12.557 7.737z"/>
    <path fill="#A0041E" d="M11.437 10.355c.96 1.538-1.831 4.561-3.368 5.522-1.538.961-2.899-.552-4.414-4.414-.662-1.689-1.666-6.27-1.103-6.622.562-.351 7.924 3.976 8.885 5.514z"/>
    <path fill="#F4900C" d="M22.557 9.802C21.9 12.441 31.23 20.291 33.802 13.9c1.49-3.703 2.792-11.466 1.312-11.835-1.48-.368-11.899 5.098-12.557 7.737z"/>
    <path fill="#A0041E" d="M24.552 10.355c-.96 1.538 1.831 4.561 3.368 5.522 1.537.961 2.898-.552 4.413-4.414.662-1.688 1.666-6.269 1.104-6.621-.563-.352-7.924 3.975-8.885 5.513z"/>
    <path fill="#F18F26" d="M32.347 26.912c0-.454-.188-1.091-.407-1.687.585.028 1.519.191 2.77.817-.008-.536-.118-.984-.273-1.393.041.02.075.034.116.055-1.103-3.31-3.309-5.517-3.309-5.517h2.206c-2.331-4.663-4.965-8.015-8.075-9.559-1.39-.873-3.688-1.338-7.373-1.339h-.003c-3.695 0-5.996.468-7.385 1.346-3.104 1.547-5.734 4.896-8.061 9.552H4.76s-2.207 2.206-3.311 5.517c.03-.015.055-.025.084-.04-.201.392-.307.847-.282 1.377 1.263-.632 2.217-.792 2.813-.818-.189.513-.343 1.044-.386 1.475-.123.371-.191.812-.135 1.343C6.75 26.584 8.25 26.792 10 27.667 11.213 31.29 14.206 34 18.001 34c3.793 0 6.746-2.794 7.958-6.416 1.458-1.25 3.708-.875 6.416.416.066-.414.036-.773-.036-1.093l.008.005z"/>
    <path fill="#FFD983" d="M31.243 23.601c.006 0 1.108.003 3.309 1.103-1.249-2.839-7.525-4.07-9.931-3.291-1.171 1.954-1.281 5.003-3.383 6.622-1.741 1.431-4.713 1.458-6.479 0-2.345-1.924-2.559-5.813-3.382-6.622-2.407-.781-8.681.454-9.931 3.291 2.201-1.101 3.304-1.103 3.309-1.103 0 .001-1.103 2.208-1.103 3.311l.001-.001v.001c2.398-1.573 5.116-2.271 7.429-.452 1.666 7.921 12.293 7.545 13.833 0 2.314-1.818 5.03-1.122 7.429.452v-.001l.001.001c.002-1.103-1.101-3.311-1.102-3.311z"/>
    <path fill="#272B2B" d="M11 17s0-1.5 1.5-1.5S14 17 14 17v1.5s0 1.5-1.5 1.5-1.5-1.5-1.5-1.5V17zm11 0s0-1.5 1.5-1.5S25 17 25 17v1.5s0 1.5-1.5 1.5-1.5-1.5-1.5-1.5V17zm-7.061 10.808c-1.021.208 2.041 3.968 3.062 3.968 1.02 0 4.082-3.76 3.062-3.968-1.021-.208-5.103-.208-6.124 0z"/>
  </symbol>
</svg>